<?xml version="1.0" standalone="no"?>
<!DOCTYPE svg PUBLIC "-//W3C//DTD SVG 20010904//EN"
 "http://www.w3.org/TR/2001/REC-SVG-20010904/DTD/svg10.dtd">
<svg version="1.0" xmlns="http://www.w3.org/2000/svg"
 width="500.000000pt" height="500.000000pt" viewBox="0 0 500.000000 500.000000"
 preserveAspectRatio="xMidYMid meet">
<metadata>
Created by potrace 1.15, written by Peter Selinger 2001-2017
</metadata>
<g transform="translate(0.000000,500.000000) scale(0.100000,-0.100000)"
fill="#000000" stroke="none">
<path d="M2515 4210 c-17 -4 -22 -8 -12 -9 21 -1 18 -22 -3 -29 -7 -3 -10 -1
-7 4 3 5 -9 10 -26 11 -20 2 -104 -30 -251 -93 -122 -53 -225 -100 -230 -105
-6 -5 1 -9 17 -9 15 0 82 27 149 61 157 79 298 141 311 136 5 -1 -57 -33 -139
-70 -207 -94 -266 -126 -235 -127 14 0 44 9 67 20 23 12 66 24 95 27 46 5 64
15 141 76 49 38 91 67 94 65 2 -3 -21 -25 -53 -48 -32 -24 -91 -70 -131 -103
l-72 -60 -113 6 c-61 3 -146 11 -187 18 -103 16 -460 6 -559 -16 -114 -25
-208 -68 -411 -188 -31 -19 -33 -19 -20 -3 8 10 33 27 56 37 23 9 45 22 49 28
10 17 -104 -36 -144 -66 l-34 -26 46 -14 c35 -10 51 -21 63 -44 17 -33 12 -45
-21 -51 -46 -9 173 -108 240 -108 26 0 32 16 41 112 7 77 21 124 46 161 11 15
16 27 12 27 -4 0 3 12 17 26 52 57 168 86 258 64 54 -13 136 -65 126 -80 -3
-5 4 -11 15 -15 11 -3 20 -10 20 -15 0 -5 11 -25 24 -45 13 -19 30 -57 37 -85
l13 -49 120 -4 121 -3 -123 -2 -123 -2 3 -57 3 -58 335 -3 c363 -3 723 8 595
19 l-70 5 72 2 71 2 38 52 c20 29 39 47 41 41 6 -18 -47 -111 -66 -116 -9 -3
52 -5 135 -6 l151 -1 6 125 c7 132 16 162 61 204 14 13 23 28 19 34 -3 6 -2 7
4 4 5 -3 34 3 64 14 45 18 70 20 154 17 93 -4 111 -9 189 -46 5 -3 5 1 1 8 -5
9 -4 11 4 6 6 -4 9 -11 6 -16 -3 -4 2 -14 11 -21 31 -25 49 -76 59 -169 10
-86 13 -95 30 -92 11 2 69 6 130 10 93 6 110 10 113 25 3 14 -4 17 -41 17
l-44 0 37 39 c20 21 47 60 59 86 12 26 29 54 36 62 16 15 18 111 2 131 -5 7
-32 12 -61 12 -52 0 -309 62 -330 79 -7 6 -31 13 -54 17 -23 4 -45 11 -48 15
-3 5 -18 9 -35 9 -16 0 -37 4 -47 9 -34 16 -120 41 -145 41 -14 0 -29 5 -32
10 -3 6 -19 10 -34 10 -15 0 -36 7 -47 15 -10 8 -38 15 -61 15 -23 0 -53 4
-67 10 -34 13 -333 40 -425 39 -42 -1 -89 -5 -106 -9z m359 -31 c-10 -5 7 -5
39 -2 51 5 57 4 57 -13 0 -14 -3 -15 -12 -6 -13 13 -38 -1 -38 -22 0 -6 4 -4
10 4 11 18 23 8 14 -13 -3 -9 -14 -15 -24 -14 -15 1 -18 7 -14 23 5 19 0 22
-58 28 -34 3 -113 9 -175 13 l-112 6 -69 -52 c-94 -69 -104 -82 -55 -70 41 10
382 13 406 3 10 -3 22 4 32 19 15 24 36 29 51 14 4 -4 -1 -7 -11 -7 -10 0 -30
-14 -44 -31 -30 -35 -18 -34 -338 -48 -200 -9 -223 -12 -223 -33 0 -17 427 1
470 20 19 9 40 18 45 20 6 3 4 -1 -2 -9 -19 -19 -16 -29 10 -28 20 0 20 1 3 8
-14 5 -16 10 -7 15 7 5 20 1 30 -8 15 -14 19 -13 44 10 15 14 27 20 27 13 0
-8 29 -9 103 -5 100 7 118 -3 33 -18 -21 -4 -36 -9 -34 -11 2 -2 48 3 103 12
125 19 472 12 580 -12 96 -21 178 -45 172 -51 -2 -3 -58 2 -123 10 -290 38
-545 38 -784 -1 -86 -13 -182 -17 -522 -17 -271 -1 -418 -5 -418 -11 0 -6 -3
-6 -8 1 -9 13 -249 34 -391 34 -57 0 -151 -7 -210 -16 -104 -15 -134 -24 -276
-78 -38 -14 -61 -20 -51 -11 32 25 164 76 265 102 85 22 115 25 271 25 96 -1
247 -6 335 -11 189 -13 898 -15 891 -3 -3 5 -139 7 -303 5 l-298 -4 32 28 c33
29 140 117 208 171 l40 31 174 -1 c96 -1 165 -5 155 -9z"/>
<path d="M1402 3869 c-53 -27 -115 -96 -130 -147 -48 -161 53 -314 218 -329
100 -9 206 58 247 155 32 76 14 184 -42 258 -59 77 -201 108 -293 63z m197
-98 c66 -48 84 -144 37 -205 -14 -19 -22 -37 -18 -41 4 -3 3 -5 -3 -4 -15 4
-56 -11 -51 -20 2 -3 -21 -4 -53 -1 -83 8 -133 44 -151 108 -18 68 20 149 84
178 43 20 116 12 155 -15z"/>
<path d="M1436 3729 c-39 -34 -55 -87 -38 -122 11 -20 11 -20 6 6 -5 20 -2 27
9 27 24 0 33 -41 13 -56 -15 -11 -14 -14 15 -35 28 -20 32 -21 41 -6 11 21 47
22 54 2 4 -8 10 -15 14 -15 13 0 70 57 70 71 0 7 -6 5 -14 -7 -13 -17 -15 -18
-21 -2 -4 9 -4 22 0 28 10 16 -31 12 -45 -5 -7 -8 -18 -15 -25 -15 -7 0 -20
-11 -30 -24 -17 -23 -45 -25 -45 -4 0 6 7 8 15 4 17 -6 19 3 15 84 -2 54 -2
55 17 38 11 -10 27 -18 37 -18 9 0 19 -6 22 -14 3 -8 20 -18 37 -22 18 -3 35
-12 39 -18 4 -6 8 1 8 17 0 26 -15 38 -22 16 -2 -5 -11 -7 -21 -3 -13 5 -15
10 -7 20 7 7 18 10 26 7 26 -10 15 14 -21 46 -49 43 -101 43 -149 0z"/>
<path d="M3315 3879 c-17 -5 -50 -25 -73 -45 -167 -142 -88 -415 127 -441 78
-9 136 12 197 71 87 85 104 187 48 298 -52 102 -180 152 -299 117z m152 -96
c19 -9 46 -33 60 -54 22 -33 25 -47 21 -96 -4 -49 -10 -61 -41 -89 -19 -18
-33 -34 -31 -37 11 -10 -145 0 -158 11 -8 6 -17 9 -20 6 -3 -3 -9 0 -14 7 -5
8 -3 10 7 4 8 -5 2 4 -13 19 -48 49 -48 121 -1 185 45 58 122 77 190 44z"/>
<path d="M3334 3741 c-33 -20 -55 -66 -53 -110 1 -16 3 -19 6 -9 2 9 17 20 33
23 16 3 34 12 40 20 6 7 22 16 35 19 15 4 27 16 31 31 7 28 25 32 44 10 16
-19 3 -40 -16 -24 -11 9 -14 8 -15 -7 -6 -99 -4 -114 17 -114 17 0 18 -17 2
-23 -7 -2 -23 7 -35 20 -12 12 -29 23 -38 23 -9 0 -18 7 -21 15 -4 8 -15 15
-26 15 -15 0 -18 -5 -13 -19 7 -23 -14 -39 -26 -20 -5 8 -9 9 -9 3 0 -21 57
-65 91 -68 19 -2 24 -1 12 1 -13 2 -23 11 -23 19 0 19 49 18 56 -1 4 -8 10
-15 14 -15 13 0 70 57 70 71 0 8 -5 6 -13 -6 -17 -22 -31 -5 -22 26 5 14 13
19 26 16 20 -5 27 17 9 28 -6 4 -8 11 -4 16 3 5 -10 25 -29 44 -41 41 -92 47
-143 16z"/>
<path d="M1307 3138 c-12 -69 -60 -341 -92 -523 -19 -104 -45 -255 -59 -335
-60 -342 -107 -607 -112 -632 l-6 -28 397 0 c430 0 496 6 602 57 73 34 154
111 191 181 40 74 74 216 75 304 0 54 -5 75 -27 113 -29 49 -97 105 -128 105
-27 0 -22 27 8 34 42 11 119 91 147 154 33 74 61 238 55 324 -9 122 -84 212
-211 255 -45 15 -106 18 -443 21 l-392 3 -5 -33z m568 -312 c46 -20 75 -69 75
-128 0 -90 -42 -149 -124 -173 -51 -16 -231 -21 -239 -7 -3 5 45 300 52 320 4
10 207 0 236 -12z m-71 -576 c117 -27 152 -146 67 -231 -52 -52 -116 -69 -263
-69 -116 0 -118 0 -118 22 0 23 38 252 45 276 5 15 207 17 269 2z"/>
<path d="M2635 2498 c3 -370 8 -719 11 -775 l6 -103 339 0 c312 0 339 1 348
18 5 9 135 350 289 757 154 407 284 748 287 758 7 16 -7 17 -198 17 -126 0
-208 -4 -212 -10 -3 -5 -85 -236 -181 -512 -235 -676 -224 -646 -240 -652 -43
-17 -43 -27 -37 590 l6 584 -212 0 -211 0 5 -672z"/>
</g>
</svg>
