<svg xmlns="http://www.w3.org/2000/svg" version="1.0" width="486.88888965418323" height="323.66666472399675" preserveAspectRatio="xMidYMid meet" style=""><rect id="backgroundrect" width="100%" height="100%" x="0" y="0" fill="none" stroke="none"/>
<metadata>
Created by potrace 1.15, written by Peter Selinger 2001-2017
</metadata>

<g class="currentLayer" style=""><title>Layer 1</title><g transform="translate(0,500) scale(0.10000000149011612,-0.10000000149011612) " fill="#000000" stroke="none" id="svg_1" class="">
<path d="M2503.88888835907,4643.333343505859 c-17,-4 -22,-8 -12,-9 c21,-1 18,-22 -3,-29 c-7,-3 -10,-1 -7,4 c3,5 -9,10 -26,11 c-20,2 -104,-30 -251,-93 c-122,-53 -225,-100 -230,-105 c-6,-5 1,-9 17,-9 c15,0 82,27 149,61 c157,79 298,141 311,136 c5,-1 -57,-33 -139,-70 c-207,-94 -266,-126 -235,-127 c14,0 44,9 67,20 c23,12 66,24 95,27 c46,5 64,15 141,76 c49,38 91,67 94,65 c2,-3 -21,-25 -53,-48 c-32,-24 -91,-70 -131,-103 l-72,-60 l-113,6 c-61,3 -146,11 -187,18 c-103,16 -460,6 -559,-16 c-114,-25 -208,-68 -411,-188 c-31,-19 -33,-19 -20,-3 c8,10 33,27 56,37 c23,9 45,22 49,28 c10,17 -104,-36 -144,-66 l-34,-26 l46,-14 c35,-10 51,-21 63,-44 c17,-33 12,-45 -21,-51 c-46,-9 173,-108 240,-108 c26,0 32,16 41,112 c7,77 21,124 46,161 c11,15 16,27 12,27 c-4,0 3,12 17,26 c52,57 168,86 258,64 c54,-13 136,-65 126,-80 c-3,-5 4,-11 15,-15 c11,-3 20,-10 20,-15 c0,-5 11,-25 24,-45 c13,-19 30,-57 37,-85 l13,-49 l120,-4 l121,-3 l-123,-2 l-123,-2 l3,-57 l3,-58 l335,-3 c363,-3 723,8 595,19 l-70,5 l72,2 l71,2 l38,52 c20,29 39,47 41,41 c6,-18 -47,-111 -66,-116 c-9,-3 52,-5 135,-6 l151,-1 l6,125 c7,132 16,162 61,204 c14,13 23,28 19,34 c-3,6 -2,7 4,4 c5,-3 34,3 64,14 c45,18 70,20 154,17 c93,-4 111,-9 189,-46 c5,-3 5,1 1,8 c-5,9 -4,11 4,6 c6,-4 9,-11 6,-16 c-3,-4 2,-14 11,-21 c31,-25 49,-76 59,-169 c10,-86 13,-95 30,-92 c11,2 69,6 130,10 c93,6 110,10 113,25 c3,14 -4,17 -41,17 l-44,0 l37,39 c20,21 47,60 59,86 c12,26 29,54 36,62 c16,15 18,111 2,131 c-5,7 -32,12 -61,12 c-52,0 -309,62 -330,79 c-7,6 -31,13 -54,17 c-23,4 -45,11 -48,15 c-3,5 -18,9 -35,9 c-16,0 -37,4 -47,9 c-34,16 -120,41 -145,41 c-14,0 -29,5 -32,10 c-3,6 -19,10 -34,10 c-15,0 -36,7 -47,15 c-10,8 -38,15 -61,15 c-23,0 -53,4 -67,10 c-34,13 -333,40 -425,39 c-42,-1 -89,-5 -106,-9 zm359,-31 c-10,-5 7,-5 39,-2 c51,5 57,4 57,-13 c0,-14 -3,-15 -12,-6 c-13,13 -38,-1 -38,-22 c0,-6 4,-4 10,4 c11,18 23,8 14,-13 c-3,-9 -14,-15 -24,-14 c-15,1 -18,7 -14,23 c5,19 0,22 -58,28 c-34,3 -113,9 -175,13 l-112,6 l-69,-52 c-94,-69 -104,-82 -55,-70 c41,10 382,13 406,3 c10,-3 22,4 32,19 c15,24 36,29 51,14 c4,-4 -1,-7 -11,-7 c-10,0 -30,-14 -44,-31 c-30,-35 -18,-34 -338,-48 c-200,-9 -223,-12 -223,-33 c0,-17 427,1 470,20 c19,9 40,18 45,20 c6,3 4,-1 -2,-9 c-19,-19 -16,-29 10,-28 c20,0 20,1 3,8 c-14,5 -16,10 -7,15 c7,5 20,1 30,-8 c15,-14 19,-13 44,10 c15,14 27,20 27,13 c0,-8 29,-9 103,-5 c100,7 118,-3 33,-18 c-21,-4 -36,-9 -34,-11 c2,-2 48,3 103,12 c125,19 472,12 580,-12 c96,-21 178,-45 172,-51 c-2,-3 -58,2 -123,10 c-290,38 -545,38 -784,-1 c-86,-13 -182,-17 -522,-17 c-271,-1 -418,-5 -418,-11 c0,-6 -3,-6 -8,1 c-9,13 -249,34 -391,34 c-57,0 -151,-7 -210,-16 c-104,-15 -134,-24 -276,-78 c-38,-14 -61,-20 -51,-11 c32,25 164,76 265,102 c85,22 115,25 271,25 c96,-1 247,-6 335,-11 c189,-13 898,-15 891,-3 c-3,5 -139,7 -303,5 l-298,-4 l32,28 c33,29 140,117 208,171 l40,31 l174,-1 c96,-1 165,-5 155,-9 z" id="svg_2"/>
<path d="M1390.8888883590698,4302.333343505859 c-53,-27 -115,-96 -130,-147 c-48,-161 53,-314 218,-329 c100,-9 206,58 247,155 c32,76 14,184 -42,258 c-59,77 -201,108 -293,63 zm197,-98 c66,-48 84,-144 37,-205 c-14,-19 -22,-37 -18,-41 c4,-3 3,-5 -3,-4 c-15,4 -56,-11 -51,-20 c2,-3 -21,-4 -53,-1 c-83,8 -133,44 -151,108 c-18,68 20,149 84,178 c43,20 116,12 155,-15 z" id="svg_3"/>
<path d="M1424.8888883590698,4162.333343505859 c-39,-34 -55,-87 -38,-122 c11,-20 11,-20 6,6 c-5,20 -2,27 9,27 c24,0 33,-41 13,-56 c-15,-11 -14,-14 15,-35 c28,-20 32,-21 41,-6 c11,21 47,22 54,2 c4,-8 10,-15 14,-15 c13,0 70,57 70,71 c0,7 -6,5 -14,-7 c-13,-17 -15,-18 -21,-2 c-4,9 -4,22 0,28 c10,16 -31,12 -45,-5 c-7,-8 -18,-15 -25,-15 c-7,0 -20,-11 -30,-24 c-17,-23 -45,-25 -45,-4 c0,6 7,8 15,4 c17,-6 19,3 15,84 c-2,54 -2,55 17,38 c11,-10 27,-18 37,-18 c9,0 19,-6 22,-14 c3,-8 20,-18 37,-22 c18,-3 35,-12 39,-18 c4,-6 8,1 8,17 c0,26 -15,38 -22,16 c-2,-5 -11,-7 -21,-3 c-13,5 -15,10 -7,20 c7,7 18,10 26,7 c26,-10 15,14 -21,46 c-49,43 -101,43 -149,0 z" id="svg_4"/>
<path d="M3303.88888835907,4312.333343505859 c-17,-5 -50,-25 -73,-45 c-167,-142 -88,-415 127,-441 c78,-9 136,12 197,71 c87,85 104,187 48,298 c-52,102 -180,152 -299,117 zm152,-96 c19,-9 46,-33 60,-54 c22,-33 25,-47 21,-96 c-4,-49 -10,-61 -41,-89 c-19,-18 -33,-34 -31,-37 c11,-10 -145,0 -158,11 c-8,6 -17,9 -20,6 c-3,-3 -9,0 -14,7 c-5,8 -3,10 7,4 c8,-5 2,4 -13,19 c-48,49 -48,121 -1,185 c45,58 122,77 190,44 z" id="svg_5"/>
<path d="M3322.88888835907,4174.333343505859 c-33,-20 -55,-66 -53,-110 c1,-16 3,-19 6,-9 c2,9 17,20 33,23 c16,3 34,12 40,20 c6,7 22,16 35,19 c15,4 27,16 31,31 c7,28 25,32 44,10 c16,-19 3,-40 -16,-24 c-11,9 -14,8 -15,-7 c-6,-99 -4,-114 17,-114 c17,0 18,-17 2,-23 c-7,-2 -23,7 -35,20 c-12,12 -29,23 -38,23 c-9,0 -18,7 -21,15 c-4,8 -15,15 -26,15 c-15,0 -18,-5 -13,-19 c7,-23 -14,-39 -26,-20 c-5,8 -9,9 -9,3 c0,-21 57,-65 91,-68 c19,-2 24,-1 12,1 c-13,2 -23,11 -23,19 c0,19 49,18 56,-1 c4,-8 10,-15 14,-15 c13,0 70,57 70,71 c0,8 -5,6 -13,-6 c-17,-22 -31,-5 -22,26 c5,14 13,19 26,16 c20,-5 27,17 9,28 c-6,4 -8,11 -4,16 c3,5 -10,25 -29,44 c-41,41 -92,47 -143,16 z" id="svg_6"/>
<path d="M1295.8888883590698,3571.3333435058594 c-12,-69 -60,-341 -92,-523 c-19,-104 -45,-255 -59,-335 c-60,-342 -107,-607 -112,-632 l-6,-28 l397,0 c430,0 496,6 602,57 c73,34 154,111 191,181 c40,74 74,216 75,304 c0,54 -5,75 -27,113 c-29,49 -97,105 -128,105 c-27,0 -22,27 8,34 c42,11 119,91 147,154 c33,74 61,238 55,324 c-9,122 -84,212 -211,255 c-45,15 -106,18 -443,21 l-392,3 l-5,-33 zm568,-312 c46,-20 75,-69 75,-128 c0,-90 -42,-149 -124,-173 c-51,-16 -231,-21 -239,-7 c-3,5 45,300 52,320 c4,10 207,0 236,-12 zm-71,-576 c117,-27 152,-146 67,-231 c-52,-52 -116,-69 -263,-69 c-116,0 -118,0 -118,22 c0,23 38,252 45,276 c5,15 207,17 269,2 z" id="svg_7"/>
<path d="M2623.88888835907,2931.3333435058594 c3,-370 8,-719 11,-775 l6,-103 l339,0 c312,0 339,1 348,18 c5,9 135,350 289,757 c154,407 284,748 287,758 c7,16 -7,17 -198,17 c-126,0 -208,-4 -212,-10 c-3,-5 -85,-236 -181,-512 c-235,-676 -224,-646 -240,-652 c-43,-17 -43,-27 -37,590 l6,584 l-212,0 l-211,0 l5,-672 z" id="svg_8"/>
</g></g></svg>