<?xml version="1.0" encoding="UTF-8" standalone="no"?>
<svg
   xmlns:dc="http://purl.org/dc/elements/1.1/"
   xmlns:cc="http://creativecommons.org/ns#"
   xmlns:rdf="http://www.w3.org/1999/02/22-rdf-syntax-ns#"
   xmlns:svg="http://www.w3.org/2000/svg"
   xmlns="http://www.w3.org/2000/svg"
   viewBox="0 0 544.66669 147.54668"
   height="147.54668"
   width="544.66669"
   xml:space="preserve"
   version="1.1"
   id="svg2"><metadata
     id="metadata8"><rdf:RDF><cc:Work
         rdf:about=""><dc:format>image/svg+xml</dc:format><dc:type
           rdf:resource="http://purl.org/dc/dcmitype/StillImage" /></cc:Work></rdf:RDF></metadata><defs
     id="defs6"><clipPath
       id="clipPath18"
       clipPathUnits="userSpaceOnUse"><path
         id="path20"
         d="M 0,1106.64 0,0 l 4085,0 0,1106.64" /></clipPath><clipPath
       id="clipPath60"
       clipPathUnits="userSpaceOnUse"><path
         id="path62"
         d="m 0,0 0,1106.64 4085,0 L 4085,0 0,0" /></clipPath><clipPath
       id="clipPath72"
       clipPathUnits="userSpaceOnUse"><path
         id="path74"
         d="M 0,1106.64 0,0 l 4085,0 0,1106.64" /></clipPath></defs><g
     transform="matrix(1.3333333,0,0,-1.3333333,0,147.54667)"
     id="g10"><g
       transform="scale(0.1)"
       id="g12"><g
         id="g14"><g
           clip-path="url(#clipPath18)"
           id="g16"><path
             id="path22"
             style="fill:#231f20;fill-opacity:1;fill-rule:nonzero;stroke:none"
             d="m 3919.23,383.551 c -0.26,-16.078 -3.01,-16.145 -5.18,-19.985 -2.12,-3.839 -8.21,-8.898 -11.47,-11.074 -5.83,-3.523 -12.93,-5.957 -18.25,-6.601 l -20.49,0.132 c -11.27,2.243 -27.47,8.645 -32.84,22.539 -4.8,8.2 -4.35,19.465 -4.55,33.168 0,0 0.51,255.993 0.32,264.321 -0.12,5.633 2.88,12.547 9.29,19.336 8.77,7.711 16.51,10.754 22.85,11.234 4.43,0.32 22.68,1.535 32.35,-2.305 9.53,-3.234 14.27,-8.293 17.28,-11.683 3.01,-2.336 11.02,-19.055 10.88,-24.848 -0.13,-5.793 0.25,-267.066 -0.19,-274.234 z m 164.62,452.301 -168.27,0.253 0,-61.558 -5.89,-4.387 c -2.11,4.32 -4.16,7.875 -8.39,13.028 -9.61,13.066 -15.04,24.878 -24.39,30.386 -5.44,4.258 -9.16,8.641 -17.68,13.41 -3.65,1.954 -18.56,7.969 -25.09,8.965 -13.9,2.11 -71.91,2.785 -85.93,0.156 -14.73,-2.714 -33.94,-11.875 -38.42,-14.91 -12.11,-8.199 -24.79,-23.918 -30.61,-34.734 -10.95,-20.145 -13.57,-37.625 -15.62,-45.113 -2.43,-9.157 -5.83,-28.012 -5.96,-44.727 -0.06,-7.976 0.39,-322.555 0.39,-322.555 l 0,-15.621 c -0.13,-18.375 1.47,-22.277 6.21,-39.316 0,0 3.97,-14.02 7.93,-21.449 2.12,-4.672 9.55,-17.481 11.92,-22.215 1.35,-3.711 23.56,-31.121 33.74,-38.672 2.12,-2.566 14.67,-8.586 14.67,-8.586 4.16,-2.687 23.42,-6.66 28.23,-6.66 2.3,0 21.39,-1.152 40.27,-1.152 19.03,-0.059 37.91,1.027 39.71,1.41 3.51,0.765 17.86,0.32 27.46,6.402 9.03,4.102 11.72,7.813 14.92,10.371 3.21,2.695 8.91,8.391 15.25,15.117 6.01,6.399 11.9,12.676 15.88,19.715 2.68,-6.465 4.16,-7.168 5.69,-13.57 0,0 0.25,-89.516 0.19,-102.961 -0.06,-13.195 -4.86,-16.074 -8.96,-19.981 -2.88,-2.683 -8.97,-6.718 -17.86,-9.343 -3.72,-1.157 -11.47,-1.668 -11.47,-1.668 0,0 -184.27,-0.449 -224.62,-0.063 L 3656.9,1.21875 c 0.2,0.19141 299.22,-0.12891 299.22,-0.12891 23.81,0.37891 37.26,3.26172 55.83,17.92966 4.93,3.9024 13.25,9.8594 21.32,16.711 5.76,4.9883 12.11,12.8593 16.27,16.2578 3.64,2.9531 9.34,13.4531 13.7,21.1328 5.5,9.5977 5.11,7.5586 11.33,23.5703 6.53,16.8356 9.22,35.4686 9.34,47.4456 l -0.06,691.715" /><path
             id="path24"
             style="fill:none;stroke:#ffffff;stroke-width:7.5;stroke-linecap:square;stroke-linejoin:miter;stroke-miterlimit:2;stroke-dasharray:none;stroke-opacity:1"
             d="m 3919.23,383.551 c -0.26,-16.078 -3.01,-16.145 -5.18,-19.985 -2.12,-3.839 -8.21,-8.898 -11.47,-11.074 -5.83,-3.523 -12.93,-5.957 -18.25,-6.601 l -20.49,0.132 c -11.27,2.243 -27.47,8.645 -32.84,22.539 -4.8,8.2 -4.35,19.465 -4.55,33.168 0,0 0.51,255.993 0.32,264.321 -0.12,5.633 2.88,12.547 9.29,19.336 8.77,7.711 16.51,10.754 22.85,11.234 4.43,0.32 22.68,1.535 32.35,-2.305 9.53,-3.234 14.27,-8.293 17.28,-11.683 3.01,-2.336 11.02,-19.055 10.88,-24.848 -0.13,-5.793 0.25,-267.066 -0.19,-274.234 z m 164.62,452.301 -168.27,0.253 0,-61.558 -5.89,-4.387 c -2.11,4.32 -4.16,7.875 -8.39,13.028 -9.61,13.066 -15.04,24.878 -24.39,30.386 -5.44,4.258 -9.16,8.641 -17.68,13.41 -3.65,1.954 -18.56,7.969 -25.09,8.965 -13.9,2.11 -71.91,2.785 -85.93,0.156 -14.73,-2.714 -33.94,-11.875 -38.42,-14.91 -12.11,-8.199 -24.79,-23.918 -30.61,-34.734 -10.95,-20.145 -13.57,-37.625 -15.62,-45.113 -2.43,-9.157 -5.83,-28.012 -5.96,-44.727 -0.06,-7.976 0.39,-322.555 0.39,-322.555 l 0,-15.621 c -0.13,-18.375 1.47,-22.277 6.21,-39.316 0,0 3.97,-14.02 7.93,-21.449 2.12,-4.672 9.55,-17.481 11.92,-22.215 1.35,-3.711 23.56,-31.121 33.74,-38.672 2.12,-2.566 14.67,-8.586 14.67,-8.586 4.16,-2.687 23.42,-6.66 28.23,-6.66 2.3,0 21.39,-1.152 40.27,-1.152 19.03,-0.059 37.91,1.027 39.71,1.41 3.51,0.765 17.86,0.32 27.46,6.402 9.03,4.102 11.72,7.813 14.92,10.371 3.21,2.695 8.91,8.391 15.25,15.117 6.01,6.399 11.9,12.676 15.88,19.715 2.68,-6.465 4.16,-7.168 5.69,-13.57 0,0 0.25,-89.516 0.19,-102.961 -0.06,-13.195 -4.86,-16.074 -8.96,-19.981 -2.88,-2.683 -8.97,-6.718 -17.86,-9.343 -3.72,-1.157 -11.47,-1.668 -11.47,-1.668 0,0 -184.27,-0.449 -224.62,-0.063 L 3656.9,1.21875 c 0.2,0.19141 299.22,-0.12891 299.22,-0.12891 23.81,0.37891 37.26,3.26172 55.83,17.92966 4.93,3.9024 13.25,9.8594 21.32,16.711 5.76,4.9883 12.11,12.8593 16.27,16.2578 3.64,2.9531 9.34,13.4531 13.7,21.1328 5.5,9.5977 5.11,7.5586 11.33,23.5703 6.53,16.8356 9.22,35.4686 9.34,47.4456 l -0.06,691.715 z" /><path
             id="path26"
             style="fill:#231f20;fill-opacity:1;fill-rule:nonzero;stroke:none"
             d="m 3351.22,684.137 c -6.27,-7.203 -6.08,-18.188 -6.08,-18.188 l 0.31,-439.472 -173.38,0.253 -0.07,609.446 167.57,-0.227 c -0.07,-20.484 -0.07,-54.519 -0.33,-65.761 8.39,11.242 13.32,19.984 19.28,26.066 5.96,6.051 9.47,9.121 20.87,18.34 14.09,11.34 35.66,21.422 51.74,24.59 18.95,3.679 49.69,1.855 58.65,-0.352 14.21,-3.484 37.2,-13.672 53.02,-26.191 16.52,-13.028 34.06,-33.903 40.08,-52.793 2.89,-8.926 6.79,-17.539 8.51,-38.063 l -0.06,-494.922 -164.49,-0.187 2.31,416.707 c 0.05,38.254 -29.4,49.238 -29.4,49.238 -10.24,2.207 -20.42,1.824 -32.33,0.191 0,0 -9.99,-1.468 -16.2,-8.675" /><path
             id="path28"
             style="fill:none;stroke:#231f20;stroke-width:7.5;stroke-linecap:square;stroke-linejoin:miter;stroke-miterlimit:2;stroke-dasharray:none;stroke-opacity:1"
             d="m 3351.22,684.137 c -6.27,-7.203 -6.08,-18.188 -6.08,-18.188 l 0.31,-439.472 -173.38,0.253 -0.07,609.446 167.57,-0.227 c -0.07,-20.484 -0.07,-54.519 -0.33,-65.761 8.39,11.242 13.32,19.984 19.28,26.066 5.96,6.051 9.47,9.121 20.87,18.34 14.09,11.34 35.66,21.422 51.74,24.59 18.95,3.679 49.69,1.855 58.65,-0.352 14.21,-3.484 37.2,-13.672 53.02,-26.191 16.52,-13.028 34.06,-33.903 40.08,-52.793 2.89,-8.926 6.79,-17.539 8.51,-38.063 l -0.06,-494.922 -164.49,-0.187 2.31,416.707 c 0.05,38.254 -29.4,49.238 -29.4,49.238 -10.24,2.207 -20.42,1.824 -32.33,0.191 0,0 -9.99,-1.468 -16.2,-8.675 z" /><path
             id="path30"
             style="fill:#231f20;fill-opacity:1;fill-rule:nonzero;stroke:none"
             d="m 2419.9,225.52 -1.73,864.09 164.49,-0.16 0.13,-862.774 -162.89,-1.156" /><path
             id="path32"
             style="fill:none;stroke:#231f20;stroke-width:7.5;stroke-linecap:square;stroke-linejoin:miter;stroke-miterlimit:2;stroke-dasharray:none;stroke-opacity:1"
             d="m 2419.9,225.52 -1.73,864.09 164.49,-0.16 0.13,-862.774 -162.89,-1.156 z" /><path
             id="path34"
             style="fill:#231f20;fill-opacity:1;fill-rule:nonzero;stroke:none"
             d="m 2167.5,226.414 0.63,609.508 177.49,0.058 2.05,-609.375 -180.17,-0.191" /><path
             id="path36"
             style="fill:none;stroke:#231f20;stroke-width:7.5;stroke-linecap:square;stroke-linejoin:miter;stroke-miterlimit:2;stroke-dasharray:none;stroke-opacity:1"
             d="m 2167.5,226.414 0.63,609.508 177.49,0.058 2.05,-609.375 -180.17,-0.191 z" /><path
             id="path38"
             style="fill:#231f20;fill-opacity:1;fill-rule:nonzero;stroke:none"
             d="m 2168.77,950.402 c 0,0 2.37,139.108 -0.32,139.268 l 171.35,-0.29 -0.07,-138.876 -170.96,-0.102" /><path
             id="path40"
             style="fill:none;stroke:#231f20;stroke-width:7.5;stroke-linecap:square;stroke-linejoin:miter;stroke-miterlimit:2;stroke-dasharray:none;stroke-opacity:1"
             d="m 2168.77,950.402 c 0,0 2.37,139.108 -0.32,139.268 l 171.35,-0.29 -0.07,-138.876 -170.96,-0.102 z" /><path
             id="path42"
             style="fill:#231f20;fill-opacity:1;fill-rule:nonzero;stroke:none"
             d="m 1848.43,836.051 -0.39,152.449 160.72,0.195 -0.32,-152.715 101.49,0.196 -0.06,-128.828 -93.81,0.031 c 0,0 -0.45,-302.258 -0.25,-308.785 0.32,-8.516 -0.07,-26.188 28.42,-35.219 28.5,-9.027 40.66,-6.34 61.99,-5.695 l 0.64,-122.688 c -8.52,-3.328 -20.75,-6.656 -20.75,-6.656 -9.74,-1.027 -20.11,-2.047 -28.62,-3.648 l -84.14,0.449 c -24.65,1.152 -41.81,2.496 -68.64,17.347 -19.4,10.696 -32.46,23.821 -39.25,37.266 -8.45,16.586 -14.54,36.184 -14.4,66.594 0,16.074 -0.26,361.035 -0.26,361.035 l -52.7,-0.227 0,129.024 50.33,-0.125" /><path
             id="path44"
             style="fill:none;stroke:#231f20;stroke-width:7.5;stroke-linecap:square;stroke-linejoin:miter;stroke-miterlimit:2;stroke-dasharray:none;stroke-opacity:1"
             d="m 1848.43,836.051 -0.39,152.449 160.72,0.195 -0.32,-152.715 101.49,0.196 -0.06,-128.828 -93.81,0.031 c 0,0 -0.45,-302.258 -0.25,-308.785 0.32,-8.516 -0.07,-26.188 28.42,-35.219 28.5,-9.027 40.66,-6.34 61.99,-5.695 l 0.64,-122.688 c -8.52,-3.328 -20.75,-6.656 -20.75,-6.656 -9.74,-1.027 -20.11,-2.047 -28.62,-3.648 l -84.14,0.449 c -24.65,1.152 -41.81,2.496 -68.64,17.347 -19.4,10.696 -32.46,23.821 -39.25,37.266 -8.45,16.586 -14.54,36.184 -14.4,66.594 0,16.074 -0.26,361.035 -0.26,361.035 l -52.7,-0.227 0,129.024 50.33,-0.125 z" /><path
             id="path46"
             style="fill:#231f20;fill-opacity:1;fill-rule:nonzero;stroke:none"
             d="m 1508.17,226.992 c -188.57,0 -238.06,27.856 -221.67,292.973 l 175.44,0 c 0,-82.828 -21.52,-150.121 67.56,-147.11 59.23,2.047 52.62,68.766 52.57,92.395 -0.13,47.859 0.83,74.18 -13.07,94.695 -63.9,94.063 -294.47,-38.734 -293.58,302.93 0.45,200.415 42.96,243.765 249.53,243.765 206.36,0 217.45,-69.7 211.62,-260.574 l -160.01,0 c 2.68,66.821 11.14,113.684 -59.74,114.707 -45.4,0.649 -53.53,-29.003 -52.89,-76.289 0.58,-39.636 3.2,-70.91 16.39,-89.257 37.71,-52.34 185.62,-16.297 255.74,-126.141 24.78,-38.832 27.33,-94.059 27.15,-180.344 -0.52,-224.551 -85.49,-261.75 -255.04,-261.75" /><path
             id="path48"
             style="fill:#231f20;fill-opacity:1;fill-rule:nonzero;stroke:none"
             d="m 2680.12,226.156 1.98,863.454 160.79,0.51 0.12,-863.444 -162.89,-0.52" /><path
             id="path50"
             style="fill:none;stroke:#231f20;stroke-width:7.5;stroke-linecap:square;stroke-linejoin:miter;stroke-miterlimit:2;stroke-dasharray:none;stroke-opacity:1"
             d="m 2680.12,226.156 1.98,863.454 160.79,0.51 0.12,-863.444 -162.89,-0.52 z" /><path
             id="path52"
             style="fill:#231f20;fill-opacity:1;fill-rule:nonzero;stroke:none"
             d="m 2934.38,226.414 -0.38,609.508 172.05,0.058 2.04,-609.375 -173.71,-0.191" /><path
             id="path54"
             style="fill:none;stroke:#231f20;stroke-width:7.5;stroke-linecap:square;stroke-linejoin:miter;stroke-miterlimit:2;stroke-dasharray:none;stroke-opacity:1"
             d="m 2934.38,226.414 -0.38,609.508 172.05,0.058 2.04,-609.375 -173.71,-0.191 z" /></g></g><g
         id="g56"><g
           clip-path="url(#clipPath60)"
           id="g58"><path
             id="path64"
             style="fill:#231f20;fill-opacity:1;fill-rule:nonzero;stroke:none"
             d="m 2934.63,950.402 -0.31,139.268 171.34,-0.29 -0.06,-138.876 -170.97,-0.102" /><path
             id="path66"
             style="fill:none;stroke:#231f20;stroke-width:7.5;stroke-linecap:square;stroke-linejoin:miter;stroke-miterlimit:2;stroke-dasharray:none;stroke-opacity:1"
             d="m 2934.63,950.402 -0.31,139.268 171.34,-0.29 -0.06,-138.876 -170.97,-0.102 z" /></g></g><g
         id="g68"><g
           clip-path="url(#clipPath72)"
           id="g70"><path
             id="path76"
             style="fill:#ed1b24;fill-opacity:1;fill-rule:nonzero;stroke:none"
             d="m 439.883,324.379 c -188.5,0 -341.3361,152.91 -341.3361,341.41 0,188.57 152.8361,341.411 341.3361,341.411 188.574,0 341.418,-152.841 341.418,-341.411 0,-188.5 -152.844,-341.41 -341.418,-341.41 z m 0,781.331 C 196.957,1105.71 0,908.754 0,665.789 0,422.859 196.957,225.902 439.883,225.902 c 243,0 439.961,196.957 439.961,439.887 0,242.965 -196.961,439.921 -439.961,439.921" /><path
             id="path78"
             style="fill:#ed1b24;fill-opacity:1;fill-rule:nonzero;stroke:none"
             d="m 776.875,225.902 c 131.973,101.297 217.129,260.668 217.129,439.887 0,176.789 -82.852,334.241 -211.746,435.691 l 301.912,0 0,-875.578 -307.295,0" /><path
             id="path80"
             style="fill:#ed1b24;fill-opacity:1;fill-rule:nonzero;stroke:none"
             d="m 307.922,625.031 -212.6447,156.723 264.4497,0 82.597,249.066 82.531,-249.066 261.629,0 L 578,625.031 668.984,371.059 442.258,527.07 226.797,371.059 307.922,625.031" /></g></g></g></g></svg>
